<?xml version="1.0" standalone="no"?>
<!DOCTYPE svg PUBLIC "-//W3C//DTD SVG 20010904//EN"
 "http://www.w3.org/TR/2001/REC-SVG-20010904/DTD/svg10.dtd">
<svg version="1.0" xmlns="http://www.w3.org/2000/svg"
 width="512.000000pt" height="512.000000pt" viewBox="0 0 512.000000 512.000000"
 preserveAspectRatio="xMidYMid meet">
<metadata>
Created by potrace 1.14, written by Peter Selinger 2001-2017
</metadata>
<g transform="translate(0.000000,512.000000) scale(0.100000,-0.100000)"
fill="#000000" stroke="none">
<path d="M0 2560 l0 -2560 2560 0 2560 0 0 2560 0 2560 -2560 0 -2560 0 0
-2560z m3375 1026 c75 -20 132 -53 187 -107 161 -161 152 -453 -19 -609 -72
-66 -128 -84 -247 -78 -248 11 -370 175 -312 422 l14 58 -42 -6 c-73 -11 -198
-80 -270 -150 l-66 -63 0 -604 c0 -591 0 -603 21 -646 36 -73 105 -101 322
-128 l47 -6 0 -75 0 -74 -690 0 -690 0 0 74 0 75 58 6 c79 9 158 30 188 50 14
9 35 36 45 60 19 42 19 70 17 712 -3 750 3 689 -80 779 -44 47 -112 79 -197
90 l-51 7 0 78 0 79 39 0 c21 0 240 11 486 25 417 23 450 24 467 8 16 -14 18
-34 18 -164 l0 -148 73 73 c131 131 254 209 397 252 87 27 208 31 285 10z"/>
</g>
</svg>
